<?xml version="1.0" encoding="utf-8"?>
<!-- Generator: Adobe Illustrator 27.5.0, SVG Export Plug-In . SVG Version: 6.00 Build 0)  -->
<svg version="1.1" id="Layer_1" xmlns="http://www.w3.org/2000/svg" xmlns:xlink="http://www.w3.org/1999/xlink" x="0px" y="0px"
	 viewBox="0 0 161 99.1" style="enable-background:new 0 0 161 99.1;" xml:space="preserve">
<style type="text/css">
	.st0{fill:#4A77A1;}
</style>
<path class="st0" d="M71.5,36.6c-1.9-4.8-8.7-4.8-10.7,0L35.6,99.1H49l17.2-42.6l13.3,32.8h0c1.4,3.4,4.7,5.7,8.4,5.7h0
	c2.4,0,4.6-0.9,6.2-2.5L71.5,36.6z M66.2,28.9c4,0,7.6,2.4,9.2,6.2l21.4,53l6.7-16.5L86.8,30.4C83.4,22,75.3,16.5,66.2,16.5
	c-9.1,0-17.2,5.5-20.6,13.9L17.8,99.1h13.4l25.9-64C58.5,31.3,62.1,28.9,66.2,28.9 M66.2,12.4c10.8,0,20.4,6.5,24.5,16.5l15,37.1
	l6.7-16.5l-10.2-25.2C96.2,9.5,82.1,0,66.2,0c-15.9,0-30,9.5-36,24.3L0,99.1h13.4l28.4-70.2C45.8,18.9,55.4,12.4,66.2,12.4
	 M134.3,6.2l-34.2,84.6c-2,5-6.9,8.3-12.2,8.3h21.7c8.4,0,16-5.1,19.1-12.9l32.3-80H134.3z"/>
</svg>
